<?xml version="1.0" standalone="no"?>
<!DOCTYPE svg PUBLIC "-//W3C//DTD SVG 20010904//EN"
 "http://www.w3.org/TR/2001/REC-SVG-20010904/DTD/svg10.dtd">
<svg version="1.0" xmlns="http://www.w3.org/2000/svg"
 width="180.000000pt" height="180.000000pt" viewBox="0 0 180.000000 180.000000"
 preserveAspectRatio="xMidYMid meet">

<g transform="translate(0.000000,180.000000) scale(0.100000,-0.100000)"
fill="#000000" stroke="none">
<path d="M1446 1411 l-79 -6 -179 -330 c-99 -181 -197 -353 -219 -382 -54 -73
-147 -118 -239 -117 -195 1 -343 188 -296 373 27 106 92 182 188 218 57 21
181 22 229 1 52 -23 116 -83 160 -150 27 -42 39 -54 46 -45 19 24 113 197 113
207 0 22 -128 136 -186 167 -214 113 -455 74 -636 -104 -229 -226 -186 -609
90 -793 86 -58 156 -81 262 -87 191 -11 361 72 468 229 16 24 89 151 162 283
73 132 167 301 208 375 41 74 78 140 83 146 20 25 -4 27 -175 15z"/>
<path d="M1306 707 l-59 -113 63 -122 63 -122 117 0 c64 0 119 2 122 5 3 3
-18 50 -47 103 -151 282 -187 348 -193 354 -4 4 -34 -44 -66 -105z"/>
</g>
</svg>