<?xml version="1.0" standalone="no"?>
<!DOCTYPE svg PUBLIC "-//W3C//DTD SVG 20010904//EN"
 "http://www.w3.org/TR/2001/REC-SVG-20010904/DTD/svg10.dtd">
<svg version="1.0" xmlns="http://www.w3.org/2000/svg"
 width="100.000000pt" height="100.000000pt" viewBox="0 0 100.000000 100.000000"
 preserveAspectRatio="xMidYMid meet">

<g transform="translate(0.000000,100.000000) scale(0.100000,-0.100000)"
fill="#000000" stroke="none">
<path d="M50 550 c-11 -11 -20 -29 -20 -40 0 -23 42 -70 62 -70 24 0 55 29 82
74 30 51 31 56 14 56 -7 0 -24 -21 -38 -48 -19 -36 -31 -48 -52 -50 -36 -4
-53 26 -32 56 18 26 37 28 54 7 10 -13 15 -13 21 -3 23 36 -57 52 -91 18z"/>
<path d="M275 524 c-8 -20 -15 -37 -15 -38 0 -1 18 -1 40 -1 45 0 44 -3 28 42
-16 43 -34 42 -53 -3z m35 -4 c0 -5 -4 -10 -10 -10 -5 0 -10 5 -10 10 0 6 5
10 10 10 6 0 10 -4 10 -10z"/>
<path d="M360 520 c0 -22 5 -40 10 -40 6 0 10 18 10 40 0 22 -4 40 -10 40 -5
0 -10 -18 -10 -40z"/>
<path d="M480 520 c0 -22 5 -40 10 -40 6 0 10 9 10 20 0 11 5 20 11 20 6 0 13
-9 16 -20 7 -25 23 -26 23 -2 0 27 -15 43 -33 36 -12 -4 -17 -1 -17 10 0 9 -4
16 -10 16 -5 0 -10 -18 -10 -40z"/>
<path d="M662 551 c-8 -5 -12 -21 -10 -37 3 -26 7 -29 41 -32 32 -3 37 0 37
17 0 15 -6 21 -22 21 -18 0 -20 -2 -8 -10 18 -11 6 -25 -15 -16 -10 3 -15 15
-13 28 2 19 8 22 31 20 18 -2 26 1 22 7 -7 13 -45 14 -63 2z"/>
<path d="M400 494 c0 -24 5 -44 10 -44 6 0 10 7 10 15 0 8 9 15 20 15 25 0 37
25 21 44 -6 7 -23 14 -36 14 -23 0 -25 -4 -25 -44z m42 11 c0 -5 -5 -11 -11
-13 -6 -2 -11 4 -11 13 0 9 5 15 11 13 6 -2 11 -8 11 -13z"/>
<path d="M574 529 c-4 -8 0 -9 15 -4 12 3 21 2 21 -4 0 -5 -10 -11 -22 -13
-25 -4 -37 -28 -13 -28 9 0 13 5 10 10 -3 6 1 10 10 10 9 0 13 -4 10 -10 -3
-5 1 -10 9 -10 21 0 21 46 0 54 -23 9 -32 7 -40 -5z"/>
<path d="M750 509 c0 -16 5 -29 10 -29 6 0 10 9 10 20 0 11 5 20 10 20 19 0
10 16 -10 17 -16 1 -20 -4 -20 -28z"/>
<path d="M823 533 c-7 -2 -13 -16 -13 -29 0 -21 5 -24 33 -23 30 1 31 1 7 9
-24 8 -24 8 -2 9 25 1 30 26 6 35 -9 3 -16 6 -17 5 -1 0 -8 -3 -14 -6z m27
-13 c0 -5 -4 -10 -10 -10 -5 0 -10 5 -10 10 0 6 5 10 10 10 6 0 10 -4 10 -10z"/>
<path d="M890 493 c0 -24 5 -43 10 -43 6 0 10 7 10 15 0 8 9 15 19 15 43 0 30
55 -14 55 -23 1 -25 -3 -25 -42z m42 12 c0 -5 -5 -11 -11 -13 -6 -2 -11 4 -11
13 0 9 5 15 11 13 6 -2 11 -8 11 -13z"/>
<path d="M168 484 c-9 -8 9 -44 22 -44 14 0 12 13 -3 34 -7 9 -16 14 -19 10z"/>
</g>
</svg>
